<svg xmlns="http://www.w3.org/2000/svg" viewBox="0 0 1200 1500" role="img" aria-labelledby="title desc">
  <title id="title">Dragon Structures engineering schematic</title>
  <desc id="desc">A clean technical schematic representing structural analysis, qualification testing, and launch support engineering.</desc>
  <rect width="1200" height="1500" fill="#f6f3ed"/>
  <g opacity="0.52" stroke="#d8d0c3" stroke-width="2">
    <path d="M0 120H1200M0 240H1200M0 360H1200M0 480H1200M0 600H1200M0 720H1200M0 840H1200M0 960H1200M0 1080H1200M0 1200H1200M0 1320H1200M0 1440H1200"/>
    <path d="M120 0V1500M240 0V1500M360 0V1500M480 0V1500M600 0V1500M720 0V1500M840 0V1500M960 0V1500M1080 0V1500"/>
  </g>
  <rect x="68" y="68" width="1064" height="1364" fill="none" stroke="#111111" stroke-width="8"/>
  <g transform="translate(0 8)">
    <text x="108" y="156" fill="#111111" font-family="Georgia, serif" font-size="78" font-weight="700">Dragon Structures</text>
    <text x="112" y="214" fill="#b64231" font-family="Arial, sans-serif" font-size="30" font-weight="700" letter-spacing="3">STRUCTURAL ANALYSIS / QUALIFICATION / TEST CORRELATION</text>
  </g>
  <g transform="translate(172 316)">
    <path d="M420 40C563 92 643 218 643 396C643 590 550 778 420 896C290 778 197 590 197 396C197 218 277 92 420 40Z" fill="#ffffff" stroke="#111111" stroke-width="8"/>
    <path d="M420 124C514 166 564 258 564 398C564 535 513 675 420 772C327 675 276 535 276 398C276 258 326 166 420 124Z" fill="#f6f3ed" stroke="#111111" stroke-width="5"/>
    <circle cx="420" cy="338" r="94" fill="#ffffff" stroke="#111111" stroke-width="7"/>
    <circle cx="420" cy="338" r="51" fill="#123e7c" opacity="0.14" stroke="#123e7c" stroke-width="5"/>
    <path d="M284 564H556M316 634H524M352 704H488" stroke="#111111" stroke-width="6" stroke-linecap="round"/>
    <path d="M196 398L88 310M643 398L752 310M278 744L112 900M562 744L728 900" stroke="#21715d" stroke-width="10" stroke-linecap="round"/>
    <circle cx="88" cy="310" r="18" fill="#21715d"/>
    <circle cx="752" cy="310" r="18" fill="#21715d"/>
    <circle cx="112" cy="900" r="18" fill="#21715d"/>
    <circle cx="728" cy="900" r="18" fill="#21715d"/>
    <path d="M420 40L420 896M248 224L592 572M592 224L248 572" stroke="#b64231" stroke-width="5" opacity="0.92"/>
    <path d="M32 982H808" stroke="#111111" stroke-width="8" stroke-linecap="square"/>
    <path d="M92 982V1056M748 982V1056" stroke="#111111" stroke-width="8"/>
    <path d="M42 1056H798" stroke="#111111" stroke-width="8"/>
    <text x="42" y="1132" fill="#111111" font-family="Arial, sans-serif" font-size="32" font-weight="700">LOAD PATHS + MARGINS</text>
    <text x="42" y="1184" fill="#65625d" font-family="Arial, sans-serif" font-size="26">Reusable analysis tools for flight hardware and GSE.</text>
  </g>
  <g transform="translate(110 1234)">
    <rect x="0" y="0" width="980" height="114" fill="#111111"/>
    <text x="34" y="48" fill="#f6f3ed" font-family="Arial, sans-serif" font-size="28" font-weight="700">ANSYS</text>
    <text x="214" y="48" fill="#f6f3ed" font-family="Arial, sans-serif" font-size="28" font-weight="700">FEMAP / Nastran</text>
    <text x="530" y="48" fill="#f6f3ed" font-family="Arial, sans-serif" font-size="28" font-weight="700">NASGRO</text>
    <text x="748" y="48" fill="#f6f3ed" font-family="Arial, sans-serif" font-size="28" font-weight="700">ABAQUS</text>
    <path d="M34 78H946" stroke="#b64231" stroke-width="6"/>
  </g>
</svg>
